# xmcd
#
# Track frame offsets:
# 150
# 18660
# 44461
# 65206
# 86476
# 108348
# 135747
# 154396
# 175292
# 193318
# 205470
# 221390
# 237224
# 253707
# 269673
# 288497
#
# Disc length: 4091 seconds
#
#
# Revision: 0
# Processed by: cddbd v1.4PL0 Copyright (c) Steve Scherf et al.
# Submitted via: FreeRIP 2.51 
#
DISCID=010ff910
DTITLE=赵薇 - 爱之玄
DYEAR=2003
DGENRE=A Cappella
TTITLE0=爱之玄
TTITLE1=最后一次分手
TTITLE2=不由自主
TTITLE3=清晨阳光
TTITLE4=情深深雨朦朦
TTITLE5=离别的车站
TTITLE6=烟雨朦朦
TTITLE7=自从离别后
TTITLE8=在我心中依然最美
TTITLE9=小冤家
TTITLE10=我的爱不NG
TTITLE11=爱情大魔咒
TTITLE12=有一人姑娘
TTITLE13=自从有了你
TTITLE14=SHA LA LA
TTITLE15=我们
EXTD=
EXTT0=
EXTT1=
EXTT2=
EXTT3=
EXTT4=
EXTT5=
EXTT6=
EXTT7=
EXTT8=
EXTT9=
EXTT10=
EXTT11=
EXTT12=
EXTT13=
EXTT14=
EXTT15=
PLAYORDER=
